<svg width="1707" height="647" viewBox="0 0 1707 647" fill="none" xmlns="http://www.w3.org/2000/svg">
<rect width="1707" height="647" fill="white"/>
<path d="M0 323.334V646.667H853.333H1706.67V323.334V0.000305176H853.333H0V323.334ZM214.667 36.5336C248.933 47.467 276 76.1336 300.667 127.734C304 134.534 307.067 141.6 307.467 143.334C307.867 145.2 308.533 146.667 308.933 146.667C309.333 146.667 313.6 143.867 318.533 140.4C329.6 132.667 347.2 123.734 359.333 119.867C366.8 117.467 372.4 116.8 387.333 116.534L406 116.134L418.667 122.4C456.4 141.067 476.8 182.934 482 252.267C482.533 258.8 483.467 264 484 264C484.667 264 490.133 262.8 496.267 261.334C551.067 248.267 595.467 269.067 610 314.8C623.6 358 610.933 424.934 575.6 495.334C559.2 528.134 530.133 574.934 510.4 600.667L503.067 610L482.933 610.4C461.467 610.8 460.133 610.4 465.2 604.8C473.867 595.067 500.4 558 516.267 533.334C539.733 496.8 562.267 448.667 572.533 412.934C579.733 387.867 581.867 374.934 581.867 354.667C581.867 335.067 580.133 326.267 573.6 314.134C561.333 291.467 530.933 284.934 492.533 296.667L481.733 300L480.933 314.667C479.333 342.667 469.867 394.534 459.733 431.334C453.467 454 439.333 495.734 429.733 519.334C421.467 540 397.867 589.334 389.333 603.6L385.333 610.667H366.667C354.533 610.667 348 610.134 348 609.334C348 608.534 351.733 601.734 356.133 594.267C374.133 564.534 400.4 506.667 413.6 468C419.333 451.067 427.333 424 431.867 405.734C440.133 372.934 449.2 316 446.133 316C444.4 316 427.867 325.467 414 334.4C397.333 345.2 372.133 364.134 357.867 376.534L347.067 386L346.133 404.667C343.067 467.467 333.867 524.667 319.2 571.734C312.8 592.134 306.533 608.4 304.8 609.6C303.067 610.8 271.467 611.067 270.4 609.867C270 609.467 271.733 604.267 274.267 598.267C292.667 555.2 305.733 495.6 311.333 429.334L312.133 419.334L305.733 426C259.6 473.867 216.667 533.734 188.533 589.2C183.2 599.734 178 608.934 177.067 609.467C176.133 610 154.667 610.534 129.2 610.667H83.0667L81.4667 607.067C74.5333 592 64.2667 558.8 58 531.334C33.2 421.467 36.4 288.8 66.2667 185.334C90.8 100.4 131.067 46.0003 177.333 35.467C187.467 33.067 205.6 33.6003 214.667 36.5336ZM760.133 98.667C762.133 104.934 773.467 139.734 785.2 176C797.067 212.267 810 251.867 814 264C817.867 276.134 829.067 310.534 838.8 340.4L856.533 394.934L860.133 383.734C862.133 377.734 866.267 364 869.333 353.334C876.933 326.934 881.067 313.067 884.667 301.334C886.4 295.867 890 283.867 892.667 274.667C899.067 252.667 906.267 227.867 909.333 218C910.667 213.6 914.667 200.4 918 188.667C921.467 176.934 927.2 157.734 930.667 146C934.267 134.267 938.4 119.734 940.133 113.6L943.067 102.667H958.267C967.733 102.667 973.333 103.2 973.333 104C973.333 104.8 967.867 123.6 961.333 145.734C954.667 167.867 947.2 193.2 944.533 202C941.867 210.8 938.4 222.534 936.667 228C934.933 233.467 931.067 246.667 928 257.334C924.933 268 917.733 292.267 912 311.334C906.267 330.4 900.933 348.134 900.267 350.667C897.867 359.2 889.6 387.067 882.933 409.334C879.333 421.467 871.733 446.934 866.133 466C860.4 485.067 854.667 504.267 853.333 508.667C852 513.067 849.6 521.067 848.133 526.267L845.2 536H827.6H810L803.467 515.6C799.867 504.534 793.733 485.734 789.867 474C786 462.267 777.067 434.667 770 412.667C762.933 390.667 755.467 367.6 753.333 361.334C751.2 355.067 743.733 332 736.667 310C729.467 288 722.4 265.734 720.667 260.667C718.933 255.467 711.467 232.4 704 209.334C696.4 186.267 688 162.4 685.333 156.4C676.267 136.8 664.933 128.134 650.133 129.734C644.933 130.267 642.133 129.867 640.133 128.534C636.533 126 636.533 119.867 640 116.667C642.533 114.4 750.133 86.5336 754.533 87.067C755.733 87.2003 757.867 91.7337 760.133 98.667ZM1550.67 98.9337C1596.4 106.267 1623.87 127.2 1633.33 161.6C1634.8 167.2 1636.27 176.267 1636.4 181.6L1636.67 191.334L1603.33 191.734C1585.07 192 1568.8 191.867 1567.2 191.467C1564.8 190.8 1564.27 189.334 1563.47 180.134C1561.33 154.4 1550 137.2 1530.27 129.867C1524.67 127.867 1519.87 127.334 1506 127.334C1489.07 127.334 1488.4 127.467 1479.73 131.734C1460.4 141.2 1446.67 162.534 1438.13 196.267C1430.53 226.267 1428.67 246.8 1428.67 302.667C1428.67 365.334 1431.6 394.934 1440.67 426.667C1457.2 483.867 1486.53 507.467 1538 504.934C1569.33 503.334 1592.8 496.4 1610.8 483.2C1614.27 480.667 1617.33 478.667 1617.87 478.667C1618.27 478.667 1618.67 487.734 1618.67 498.8V518.8L1608.67 523.334C1595.07 529.6 1571.73 536.4 1554 539.467C1531.6 543.334 1493.33 543.067 1474.93 538.934C1447.87 532.8 1428.8 522.534 1409.07 503.2C1369.87 464.534 1350.13 401.334 1350.27 314.667C1350.27 257.334 1358 216.667 1375.87 179.334C1392.27 144.934 1417.47 119.734 1448.27 106.934C1476.27 95.3337 1511.47 92.5337 1550.67 98.9337ZM1203.6 105.867C1226.4 111.2 1244.67 118.8 1261.2 130C1283.2 144.934 1297.33 163.734 1304.27 187.334C1306.93 196.8 1307.33 200.667 1307.33 222C1307.33 248.134 1305.47 258.267 1297.47 277.334C1284 309.467 1254 333.067 1213.2 343.467C1200.27 346.8 1196.93 347.067 1161.73 347.6L1124 348.267V442.134V536H1085.33H1046.67L1046.4 348.267C1045.87 141.867 1046.53 155.6 1037.47 145.067C1031.47 138.134 1026.27 136 1014.8 136C1008.13 136 1004.93 135.467 1003.47 133.867C1001.2 131.6 1000.67 125.734 1002.53 122.8C1004.27 120.134 1058.8 108.267 1091.33 103.6C1093.6 103.2 1117.6 103.067 1144.67 103.334C1185.6 103.6 1195.6 104 1203.6 105.867Z" fill="#CF2027"/>
<path d="M181.067 69.2009C170.267 72.6676 161.733 78.5343 151.067 89.7343C114.4 128.401 87.4665 207.734 77.8665 305.334C74.5332 338.534 74.5332 407.468 77.7332 442.668C81.8665 486.534 90.9332 532.534 102.667 568.001C110.8 592.668 110.4 592.801 112.667 564.001C114 547.068 119.733 509.601 124 490.134C150.133 370.801 201.6 262.134 268 186.134C275.333 177.734 281.333 170.268 281.333 169.468C281.333 166.668 270.533 141.068 264.533 129.734C255.467 112.534 247.2 100.668 236.4 89.3343C225.733 78.1343 215.6 71.3343 205.067 68.5343C195.867 66.1343 190.4 66.2676 181.067 69.2009Z" fill="#CF2027"/>
<path d="M368.667 151.866C357.6 155.066 346.533 160.933 333.333 170.666C327.067 175.333 321.733 179.2 321.467 179.466C321.067 179.733 323.333 190 326.4 202.4C329.467 214.666 333.733 234.8 336 247.333C340.133 270.533 345.333 318 345.333 332.933C345.333 337.6 345.867 341.333 346.667 341.333C347.333 341.333 353.467 336.933 360.267 331.6C383.2 313.733 415.733 293.2 440.4 281.2L449.333 276.8V269.333C449.333 259.866 446.933 233.6 445.2 223.6C442.8 209.6 436.4 189.866 431.2 179.866C424.267 166.8 413.333 155.866 403.467 152.133C394.133 148.666 380 148.533 368.667 151.866Z" fill="#CF2027"/>
<path d="M290.533 210.4C289.467 211.866 284 218.666 278.4 225.733C206.933 313.866 150.133 466.933 144.667 586L143.867 603.333L158.4 575.333C166.4 559.866 175.733 542.666 179.2 536.8C198.8 504.133 226.267 466 250.933 436.933C256.133 430.8 258.667 426.8 258.667 424.4C258.667 421.733 259.067 421.2 260.133 422.266C261.2 423.333 268.8 416.4 287.467 397.466L313.2 371.333L313.333 359.6C313.333 344 311.2 314 307.867 286C305.2 263.066 295.467 210.933 293.467 208.933C292.933 208.4 291.6 209.066 290.533 210.4Z" fill="#CF2027"/>
<path d="M1124 225.467V317.733L1147.07 316.933C1159.6 316.533 1173.33 315.333 1177.33 314.267C1212.67 305.467 1230.67 275.067 1230.8 224C1230.8 189.733 1224 167.867 1208.53 152.4C1194.53 138.4 1178 133.333 1145.07 133.333H1124V225.467Z" fill="#CF2027"/>
</svg>
